<?xml version="1.0" encoding="UTF-8" standalone="no"?>
<!DOCTYPE svg PUBLIC "-//W3C//DTD SVG 1.1//EN" "http://www.w3.org/Graphics/SVG/1.1/DTD/svg11.dtd">
<!-- Created with Vectornator (http://vectornator.io/) -->
<svg height="100%" stroke-miterlimit="10" style="fill-rule:nonzero;clip-rule:evenodd;stroke-linecap:round;stroke-linejoin:round;" version="1.1" viewBox="0 0 480 480" width="100%" xml:space="preserve" xmlns="http://www.w3.org/2000/svg" xmlns:vectornator="http://vectornator.io" xmlns:xlink="http://www.w3.org/1999/xlink">
<defs/>
<g id="Layer-4" vectornator:layerName="Layer 4">
<g opacity="1">
<path d="M232.618 300.928C232.265 377.39 232.279 377.039 232.249 377.127C223.003 404.485 223.346 404.247 223.346 404.247C232.962 442.402 232.836 442.448 233.013 442.45C250.71 442.621 250.813 442.416 250.813 442.416C259.558 403.985 259.419 404.124 259.419 404.124C249.973 376.414 250.009 376.629 250.009 376.629L249.73 300.976" fill="none" opacity="1" stroke="#000000" stroke-linecap="round" stroke-linejoin="round" stroke-width="10"/>
<path d="M218.322 302.971C164.323 290.108 131.043 235.621 143.99 181.271C156.937 126.921 211.208 93.2901 265.207 106.153C319.206 119.017 352.485 173.504 339.539 227.854C330.204 267.041 299.385 295.458 262.676 303.441" fill="none" opacity="1" stroke="#000000" stroke-linecap="round" stroke-linejoin="round" stroke-width="10"/>
<path d="M212.185 156.766L211.75 276.188C211.484 284.382 218.971 287.173 219.378 287.174C261.797 287.221 257.77 286.822 257.77 286.822C267.008 286.646 267.636 279.263 267.636 279.263C266.614 156.238 265.959 155.118 265.959 155.118" fill="none" opacity="1" stroke="#000000" stroke-linecap="round" stroke-linejoin="round" stroke-width="10"/>
<path d="M212.116 159.572C212.116 145.114 224.253 133.392 239.225 133.392C254.197 133.392 266.334 145.114 266.334 159.572" fill="none" opacity="1" stroke="#000000" stroke-linecap="round" stroke-linejoin="round" stroke-width="10"/>
<path d="M215.626 68.9249C223.493 67.6473 230.961 68.1417 239.24 68.1417C247.883 68.1417 256.499 67.5218 264.711 68.9692" fill="none" opacity="1" stroke="#000000" stroke-linecap="round" stroke-linejoin="round" stroke-width="10"/>
<path d="M123.498 123.647C133.844 109.741 145.831 97.6433 161.051 88.5792" fill="none" opacity="1" stroke="#000000" stroke-linecap="round" stroke-linejoin="round" stroke-width="10"/>
<path d="M101.264 228.088C99.4182 219.162 98.4497 209.924 98.4497 200.466C98.4497 193.108 99.0318 185.942 100.154 179.001" fill="none" opacity="1" stroke="#000000" stroke-linecap="round" stroke-linejoin="round" stroke-width="10"/>
<path d="M101.552 229.451C101.454 228.997 101.358 228.543 101.264 228.088" fill="none" opacity="1" stroke="#000000" stroke-linecap="round" stroke-linejoin="round" stroke-width="10"/>
<path d="M163.267 316.957C148.852 307.818 136.241 296.194 126.068 282.706" fill="none" opacity="1" stroke="#000000" stroke-linecap="round" stroke-linejoin="round" stroke-width="10"/>
<path d="M355.978 283.401C346.342 296.327 334.164 307.44 320.113 316.175" fill="none" opacity="1" stroke="#000000" stroke-linecap="round" stroke-linejoin="round" stroke-width="10"/>
<path d="M379.969 178.585C381.637 186.743 382.511 195.212 382.511 203.93C382.511 212.718 381.629 221.275 379.945 229.53" fill="none" opacity="1" stroke="#000000" stroke-linecap="round" stroke-linejoin="round" stroke-width="10"/>
<path d="M318.611 89.9878C333.609 99.2283 346.628 111.098 356.93 125.006" fill="none" opacity="1" stroke="#000000" stroke-linecap="round" stroke-linejoin="round" stroke-width="10"/>
<path d="M101.174 229.786C101.174 229.786 76.1387 238.56 74.6811 242.719C73.337 246.554 90.0707 291.581 94.8989 293.334C99.9155 295.156 125.989 282.764 125.989 282.764" fill="none" opacity="1" stroke="#000000" stroke-linecap="round" stroke-linejoin="round" stroke-width="10"/>
<path d="M122.942 124.287C122.942 124.287 99.6938 111.508 95.6245 113.2C91.8723 114.76 69.5267 157.282 71.4452 162.047C73.4385 166.998 100.073 178.133 100.073 178.133" fill="none" opacity="1" stroke="#000000" stroke-linecap="round" stroke-linejoin="round" stroke-width="10"/>
<path d="M163.08 317.718C163.08 317.718 151.563 341.616 153.47 345.589C155.228 349.252 198.884 369.292 203.539 367.122C208.377 364.867 218.072 337.675 218.072 337.675" fill="none" opacity="1" stroke="#000000" stroke-linecap="round" stroke-linejoin="round" stroke-width="10"/>
<path d="M101.174 229.786C101.174 229.786 76.1387 238.56 74.6811 242.719C73.337 246.554 90.0707 291.581 94.8989 293.334C99.9155 295.156 125.989 282.764 125.989 282.764" fill="none" opacity="1" stroke="#000000" stroke-linecap="round" stroke-linejoin="round" stroke-width="10"/>
<path d="M267.189 342.081C267.189 342.081 276.317 366.99 280.496 368.388C284.35 369.678 329.134 352.307 330.819 347.454C332.57 342.413 319.809 316.517 319.809 316.517" fill="none" opacity="1" stroke="#000000" stroke-linecap="round" stroke-linejoin="round" stroke-width="10"/>
<path d="M357.178 283.601C357.178 283.601 380.466 296.304 384.53 294.6C388.277 293.027 410.486 250.434 408.552 245.675C406.543 240.731 379.873 229.681 379.873 229.681" fill="none" opacity="1" stroke="#000000" stroke-linecap="round" stroke-linejoin="round" stroke-width="10"/>
<path d="M357.178 283.601C357.178 283.601 380.466 296.304 384.53 294.6C388.277 293.027 410.486 250.434 408.552 245.675C406.543 240.731 379.873 229.681 379.873 229.681" fill="none" opacity="1" stroke="#000000" stroke-linecap="round" stroke-linejoin="round" stroke-width="10"/>
<path d="M320.145 87.4792C320.145 87.4792 331.923 63.7092 330.06 59.7155C328.342 56.033 284.909 35.5156 280.23 37.6349C275.368 39.8369 265.375 66.9207 265.375 66.9207" fill="none" opacity="1" stroke="#000000" stroke-linecap="round" stroke-linejoin="round" stroke-width="10"/>
<path d="M381.823 178.07C381.823 178.07 407.026 169.791 408.566 165.662C409.985 161.854 394.141 116.507 389.349 114.658C384.369 112.738 358.056 124.614 358.056 124.614" fill="none" opacity="1" stroke="#000000" stroke-linecap="round" stroke-linejoin="round" stroke-width="10"/>
<path d="M215.227 67.3565C215.227 67.3565 208.686 41.6471 204.672 39.8297C200.97 38.1539 154.647 50.8666 152.476 55.5221C150.22 60.3591 160.274 87.4206 160.274 87.4206" fill="none" opacity="1" stroke="#000000" stroke-linecap="round" stroke-linejoin="round" stroke-width="10"/>
</g>
</g>
</svg>
